<?xml version="1.0" encoding="UTF-8" standalone="no"?>
<svg
   version="1.1"
   preserveAspectRatio="none"
   x="0px"
   y="0px"
   width="156.41251"
   height="308.89999"
   viewBox="0 0 156.41251 308.89999"
   id="svg2074"
   sodipodi:docname="frigate1.svg"
   inkscape:version="1.4.2 (ebf0e940d0, 2025-05-08)"
   xmlns:inkscape="http://www.inkscape.org/namespaces/inkscape"
   xmlns:sodipodi="http://sodipodi.sourceforge.net/DTD/sodipodi-0.dtd"
   xmlns:xlink="http://www.w3.org/1999/xlink"
   xmlns="http://www.w3.org/2000/svg"
   xmlns:svg="http://www.w3.org/2000/svg">
  <sodipodi:namedview
     id="namedview1"
     pagecolor="#ffffff"
     bordercolor="#000000"
     borderopacity="0.25"
     inkscape:showpageshadow="2"
     inkscape:pageopacity="0.0"
     inkscape:pagecheckerboard="0"
     inkscape:deskcolor="#d1d1d1"
     inkscape:zoom="0.21648346"
     inkscape:cx="-20.786807"
     inkscape:cy="-101.62439"
     inkscape:window-width="1152"
     inkscape:window-height="651"
     inkscape:window-x="0"
     inkscape:window-y="0"
     inkscape:window-maximized="1"
     inkscape:current-layer="svg2074" />
  <defs
     id="defs1688">
    <g
       id="Layer0_267_MEMBER_0_FILL">
      <path
         fill="#9f9f9f"
         stroke="none"
         d="m 1848.2,476 h -2.05 q -1.2,5.15 -2.25,10.7 -1,5.3 -1.85,11 -0.05,0.15 -0.05,0.3 h 2 q 0.9,-5.85 1.95,-11.3 1.05,-5.55 2.25,-10.7 m 59.1,6.45 q -0.7,-3.3 -1.4,-6.45 h -2.05 q 1.15,5.15 2.2,10.7 1.05,5.45 1.95,11.3 h 2 q 0,-0.15 0,-0.3 -0.05,-0.2 -0.05,-0.35 -0.9,-5.5 -1.85,-10.65 -0.4,-2.15 -0.8,-4.25 z"
         id="path1476" />
      <path
         fill="#e2e2e2"
         stroke="none"
         d="m 1906.05,486.7 q -1.05,-5.55 -2.2,-10.7 h -1 -53.65 -1 q -1.2,5.15 -2.25,10.7 -1.05,5.45 -1.95,11.3 h 64 q -0.9,-5.85 -1.95,-11.3 M 1872,488 q 0,-0.7 0.2,-1.3 0.3,-0.85 0.95,-1.5 1.2,-1.2 2.85,-1.2 1.65,0 2.8,1.2 0.7,0.65 1,1.5 0.2,0.6 0.2,1.3 0,1.65 -1.2,2.85 -1.15,1.15 -2.8,1.15 -1.65,0 -2.85,-1.15 -1.15,-1.2 -1.15,-2.85 m -8.85,-2.85 q 0.5,0.7 0.7,1.55 0.15,0.6 0.15,1.3 0,1.65 -0.85,2.8 -0.9,1.2 -2.15,1.2 -1.25,0 -2.1,-1.2 -0.9,-1.15 -0.9,-2.8 0,-0.7 0.15,-1.3 0.25,-0.85 0.75,-1.55 0.85,-1.15 2.1,-1.15 1.25,0 2.15,1.15 M 1891,484 q 1.25,0 2.1,1.2 0.5,0.65 0.75,1.5 0.15,0.6 0.15,1.3 0,1.65 -0.9,2.85 -0.85,1.15 -2.1,1.15 -1.25,0 -2.15,-1.15 -0.85,-1.2 -0.85,-2.85 0,-0.7 0.15,-1.3 0.2,-0.85 0.7,-1.5 0.9,-1.2 2.15,-1.2 m 7.6,1.2 q 0.6,-1.2 1.4,-1.2 0.85,0 1.4,1.2 0.35,0.65 0.5,1.5 0.1,0.6 0.1,1.3 0,1.65 -0.6,2.85 -0.55,1.15 -1.4,1.15 -0.8,0 -1.4,-1.15 -0.6,-1.2 -0.6,-2.85 0,-0.7 0.1,-1.3 0.15,-0.85 0.5,-1.5 m -48,5.6 q -0.6,-1.15 -0.6,-2.8 0,-0.7 0.1,-1.3 0.15,-0.85 0.5,-1.55 0.55,-1.15 1.4,-1.15 0.8,0 1.4,1.15 0.35,0.7 0.5,1.55 0.1,0.6 0.1,1.3 0,1.65 -0.6,2.8 -0.6,1.2 -1.4,1.2 -0.85,0 -1.4,-1.2 z"
         id="path1477" />
      <path
         fill="#d2d2d2"
         stroke="none"
         d="m 1850,488 q 0,1.65 0.6,2.8 0.55,1.2 1.4,1.2 0.8,0 1.4,-1.2 0.6,-1.15 0.6,-2.8 0,-0.7 -0.1,-1.3 -0.15,-0.85 -0.5,-1.55 -0.6,-1.15 -1.4,-1.15 -0.85,0 -1.4,1.15 -0.35,0.7 -0.5,1.55 -0.1,0.6 -0.1,1.3 m 50,-4 q -0.8,0 -1.4,1.2 -0.35,0.65 -0.5,1.5 -0.1,0.6 -0.1,1.3 0,1.65 0.6,2.85 0.6,1.15 1.4,1.15 0.85,0 1.4,-1.15 0.6,-1.2 0.6,-2.85 0,-0.7 -0.1,-1.3 -0.15,-0.85 -0.5,-1.5 -0.55,-1.2 -1.4,-1.2 m -6.9,1.2 q -0.85,-1.2 -2.1,-1.2 -1.25,0 -2.15,1.2 -0.5,0.65 -0.7,1.5 -0.15,0.6 -0.15,1.3 0,1.65 0.85,2.85 0.9,1.15 2.15,1.15 1.25,0 2.1,-1.15 0.9,-1.2 0.9,-2.85 0,-0.7 -0.15,-1.3 -0.25,-0.85 -0.75,-1.5 m -29.25,1.5 q -0.2,-0.85 -0.7,-1.55 -0.9,-1.15 -2.15,-1.15 -1.25,0 -2.1,1.15 -0.5,0.7 -0.75,1.55 -0.15,0.6 -0.15,1.3 0,1.65 0.9,2.8 0.85,1.2 2.1,1.2 1.25,0 2.15,-1.2 0.85,-1.15 0.85,-2.8 0,-0.7 -0.15,-1.3 m 8.35,0 q -0.2,0.6 -0.2,1.3 0,1.65 1.15,2.85 1.2,1.15 2.85,1.15 1.65,0 2.8,-1.15 1.2,-1.2 1.2,-2.85 0,-0.7 -0.2,-1.3 -0.3,-0.85 -1,-1.5 -1.15,-1.2 -2.8,-1.2 -1.65,0 -2.85,1.2 -0.65,0.65 -0.95,1.5 z"
         id="path1478" />
      <path
         fill="#ac3939"
         stroke="none"
         d="m 1902.85,476 q -2.1,-7.05 -4.55,-13 -8.8,-21.25 -22.3,-29 -13.5,7.75 -22.25,29 -2.45,5.95 -4.55,13 z"
         id="path1479" />
      <path
         fill="#bd3e3e"
         stroke="none"
         d="m 1898.3,463 q 2.45,5.95 4.55,13 h 1 q -2.5,-10.75 -5.55,-19.55 -8.8,-25.25 -22.3,-34.45 -13.5,9.2 -22.25,34.45 -3.05,8.8 -5.55,19.55 h 1 q 2.1,-7.05 4.55,-13 8.75,-21.25 22.25,-29 13.5,7.75 22.3,29 z"
         id="path1480" />
      <path
         fill="#802b2b"
         stroke="none"
         d="m 1876,420 q -0.6,0 -1.1,0.35 -14.05,9.45 -23.05,35.45 -3.15,9.05 -5.7,20.2 h 2.05 q 2.5,-10.75 5.55,-19.55 8.75,-25.25 22.25,-34.45 13.5,9.2 22.3,34.45 3.05,8.8 5.55,19.55 h 2.05 q -2.6,-11.1 -5.7,-20.2 -9.05,-26 -23.05,-35.45 Q 1876.6,420 1876,420 Z"
         id="path1481" />
    </g>
    <g
       id="Layer0_267_MEMBER_1_FILL">
      <path
         fill="#f5f5f5"
         stroke="none"
         d="m 1906,552.1 v 9.9 h 2 v -9.9 h -2 m 0,-54.1 v 21.2 h 2 V 498 h -2 m -60,25.7 h -2 V 562 h 2 v -38.3 m 0,-10.5 V 498 h -2 v 15.2 z"
         id="path1482" />
      <path
         fill="#d2d2d2"
         stroke="none"
         d="m 1896.65,529.95 h -10.5 V 552.1 H 1906 v -32.9 h -9.35 v 10.75 M 1846,513.2 v 10.5 h 19.3 v -10.5 z"
         id="path1483" />
      <path
         fill="#9f9f9f"
         stroke="none"
         d="m 1908,498 v 21.2 32.9 9.9 h 2 v -64 h -2 m -64,25.7 V 513.2 498 h -2 v 64 h 2 z"
         id="path1484" />
      <path
         fill="#e2e2e2"
         stroke="none"
         d="m 1908,519.2 h -2 v 32.9 h 2 v -32.9 m -62,4.5 v -10.5 h -2 v 10.5 h 2 m 0,-25.7 v 15.2 h 19.3 v 10.5 H 1846 V 562 h 60 v -9.9 h -19.85 v -22.15 h 10.5 V 519.2 H 1906 V 498 Z"
         id="path1485" />
    </g>
    <g
       id="Layer0_267_MEMBER_2_FILL">
      <path
         fill="#e2e2e2"
         stroke="none"
         d="m 1906,562 h -60 v 64 h 60 v -64 m -52,27.2 q 0,-0.1 0,-0.2 0,-9.15 6.4,-15.6 6.5,-6.4 15.6,-6.4 9.15,0 15.55,6.4 h -0.05 q 6.5,6.4 6.5,15.6 0,0.1 0,0.2 -0.05,9 -6.45,15.3 l -0.05,0.05 q -6.4,6.45 -15.5,6.45 -9.15,0 -15.6,-6.45 -6.35,-6.35 -6.4,-15.35 m 34.15,27.5 q 0.2,-0.85 0.7,-1.5 0.9,-1.2 2.15,-1.2 1.25,0 2.1,1.2 0.5,0.65 0.75,1.5 0.15,0.6 0.15,1.3 0,1.65 -0.9,2.85 -0.85,1.15 -2.1,1.15 -1.25,0 -2.15,-1.15 -0.85,-1.2 -0.85,-2.85 0,-0.7 0.15,-1.3 M 1900,614 q 0.85,0 1.4,1.2 0.35,0.65 0.5,1.5 0.1,0.6 0.1,1.3 0,1.65 -0.6,2.85 -0.55,1.15 -1.4,1.15 -0.8,0 -1.4,-1.15 -0.6,-1.2 -0.6,-2.85 0,-0.7 0.1,-1.3 0.15,-0.85 0.5,-1.5 0.6,-1.2 1.4,-1.2 m -36.15,2.7 q 0.15,0.6 0.15,1.3 0,1.65 -0.85,2.8 -0.9,1.2 -2.15,1.2 -1.25,0 -2.1,-1.2 -0.9,-1.15 -0.9,-2.8 0,-0.7 0.15,-1.3 0.25,-0.85 0.75,-1.55 0.85,-1.15 2.1,-1.15 1.25,0 2.15,1.15 0.5,0.7 0.7,1.55 m 8.15,1.3 q 0,-0.7 0.2,-1.3 0.3,-0.85 0.95,-1.5 1.2,-1.2 2.85,-1.2 1.65,0 2.8,1.2 0.7,0.65 1,1.5 0.2,0.6 0.2,1.3 0,1.65 -1.2,2.85 -1.15,1.15 -2.8,1.15 -1.65,0 -2.85,-1.15 -1.15,-1.2 -1.15,-2.85 m -22,0 q 0,-0.7 0.1,-1.3 0.15,-0.85 0.5,-1.55 0.55,-1.15 1.4,-1.15 0.8,0 1.4,1.15 0.35,0.7 0.5,1.55 0.1,0.6 0.1,1.3 0,1.65 -0.6,2.8 -0.6,1.2 -1.4,1.2 -0.85,0 -1.4,-1.2 -0.6,-1.15 -0.6,-2.8 z"
         id="path1486" />
      <path
         fill="#d2d2d2"
         stroke="none"
         d="m 1850.1,616.7 q -0.1,0.6 -0.1,1.3 0,1.65 0.6,2.8 0.55,1.2 1.4,1.2 0.8,0 1.4,-1.2 0.6,-1.15 0.6,-2.8 0,-0.7 -0.1,-1.3 -0.15,-0.85 -0.5,-1.55 -0.6,-1.15 -1.4,-1.15 -0.85,0 -1.4,1.15 -0.35,0.7 -0.5,1.55 m 22.1,0 q -0.2,0.6 -0.2,1.3 0,1.65 1.15,2.85 1.2,1.15 2.85,1.15 1.65,0 2.8,-1.15 1.2,-1.2 1.2,-2.85 0,-0.7 -0.2,-1.3 -0.3,-0.85 -1,-1.5 -1.15,-1.2 -2.8,-1.2 -1.65,0 -2.85,1.2 -0.65,0.65 -0.95,1.5 m -8.2,1.3 q 0,-0.7 -0.15,-1.3 -0.2,-0.85 -0.7,-1.55 -0.9,-1.15 -2.15,-1.15 -1.25,0 -2.1,1.15 -0.5,0.7 -0.75,1.55 -0.15,0.6 -0.15,1.3 0,1.65 0.9,2.8 0.85,1.2 2.1,1.2 1.25,0 2.15,-1.2 0.85,-1.15 0.85,-2.8 m 37.4,-2.8 q -0.55,-1.2 -1.4,-1.2 -0.8,0 -1.4,1.2 -0.35,0.65 -0.5,1.5 -0.1,0.6 -0.1,1.3 0,1.65 0.6,2.85 0.6,1.15 1.4,1.15 0.85,0 1.4,-1.15 0.6,-1.2 0.6,-2.85 0,-0.7 -0.1,-1.3 -0.15,-0.85 -0.5,-1.5 m -12.55,0 q -0.5,0.65 -0.7,1.5 -0.15,0.6 -0.15,1.3 0,1.65 0.85,2.85 0.9,1.15 2.15,1.15 1.25,0 2.1,-1.15 0.9,-1.2 0.9,-2.85 0,-0.7 -0.15,-1.3 -0.25,-0.85 -0.75,-1.5 -0.85,-1.2 -2.1,-1.2 -1.25,0 -2.15,1.2 z"
         id="path1487" />
      <path
         fill="#f5f5f5"
         stroke="none"
         d="m 1854,589 q 0,0.1 0,0.2 0.05,9 6.4,15.35 6.45,6.45 15.6,6.45 9.1,0 15.5,-6.45 l 0.05,-0.05 q 6.4,-6.3 6.45,-15.3 0,-0.1 0,-0.2 0,-9.2 -6.5,-15.6 h 0.05 q -6.4,-6.4 -15.55,-6.4 -9.1,0 -15.6,6.4 -6.4,6.45 -6.4,15.6 m 2,0.2 q 0,-0.1 0,-0.2 0,-8.35 5.8,-14.2 5.9,-5.8 14.2,-5.8 8.3,0 14.1,5.8 5.9,5.85 5.9,14.2 0,0.1 0,0.2 -0.05,8.15 -5.9,13.9 -5.8,5.9 -14.1,5.9 -8.3,0 -14.2,-5.9 -5.75,-5.75 -5.8,-13.9 m 52,-27.2 h -2 v 64 h 2 v -64 m -62,0 h -2 v 64 h 2 z"
         id="path1488" />
      <path
         fill="#bdd6db"
         stroke="none"
         d="m 1856,589 q 0,0.1 0,0.2 0.05,8.15 5.8,13.9 5.9,5.9 14.2,5.9 8.3,0 14.1,-5.9 5.85,-5.75 5.9,-13.9 0,-0.1 0,-0.2 0,-8.35 -5.9,-14.2 -5.8,-5.8 -14.1,-5.8 -8.3,0 -14.2,5.8 -5.8,5.85 -5.8,14.2 m 5,0.2 q 0,-0.1 0,-0.2 0,-6.25 4.3,-10.6 l 0.05,-0.05 Q 1869.8,574 1876,574 q 6.25,0 10.6,4.35 4.4,4.4 4.4,10.65 0,0.1 0,0.2 -0.05,6.05 -4.4,10.35 l -0.05,0.05 q -4.35,4.4 -10.55,4.4 -6.25,0 -10.65,-4.4 -4.3,-4.3 -4.35,-10.4 z"
         id="path1489" />
      <path
         fill="#e0fbff"
         stroke="none"
         d="m 1861,589 q 0,0.1 0,0.2 0.05,6.1 4.35,10.4 4.4,4.4 10.65,4.4 6.2,0 10.55,-4.4 l 0.05,-0.05 q 4.35,-4.3 4.4,-10.35 0,-0.1 0,-0.2 0,-6.25 -4.4,-10.65 -4.35,-4.35 -10.6,-4.35 -6.2,0 -10.65,4.35 l -0.05,0.05 q -4.3,4.35 -4.3,10.6 m 5.8,-9.25 q 3.8,-3.75 9.2,-3.75 5.25,0 9,3.6 0.1,0.1 0.2,0.2 3.8,3.75 3.8,9.2 0,0.1 0,0.2 -0.05,5.25 -3.8,8.9 l -0.1,0.1 q -3.75,3.8 -9.1,3.8 -5.4,0 -9.25,-3.85 v 0.05 q -3.7,-3.75 -3.75,-9 0,-0.1 0,-0.2 0,-5.4 3.7,-9.2 z"
         id="path1490" />
      <path
         fill="#bee7ec"
         stroke="none"
         d="m 1863,589 q 0,0.1 0,0.2 0.05,5.25 3.75,9 v -0.05 q 3.85,3.85 9.25,3.85 5.35,0 9.1,-3.8 l 0.1,-0.1 q 3.75,-3.65 3.8,-8.9 0,-0.1 0,-0.2 z"
         id="path1491" />
      <path
         fill="#c8f2f7"
         stroke="none"
         d="m 1876,576 q -5.4,0 -9.2,3.75 l -0.1,0.05 q -3.7,3.8 -3.7,9.2 h 26 q 0,-5.45 -3.8,-9.2 -0.1,-0.1 -0.2,-0.2 -3.75,-3.6 -9,-3.6 z"
         id="path1492" />
      <path
         fill="#9f9f9f"
         stroke="none"
         d="m 1910,562 h -2 v 64 h 2 v -64 m -66,0 h -2 v 64 h 2 z"
         id="path1493" />
    </g>
    <g
       id="Layer0_267_MEMBER_3_FILL">
      <path
         fill="#f5f5f5"
         stroke="none"
         d="m 1846,626 h -2 v 64 h 2 v -64 m 62,0 h -2 v 64 h 2 z"
         id="path1494" />
      <path
         fill="#9f9f9f"
         stroke="none"
         d="m 1844,626 h -2 v 64 h 2 v -64 m 66,0 h -2 v 64 h 2 z"
         id="path1495" />
      <path
         fill="#e2e2e2"
         stroke="none"
         d="m 1906,690 v -64 h -60 v 64 h 60 m -17,-41 h 8 v 20 h -8 v -20 m -21,20 v -20 h 16 v 20 h -16 m -5,-20 v 20 h -8 v -20 h 8 m 38,20 v -20 h 4 v 20 h -4 m -50,-20 v 20 h -4 v -20 z"
         id="path1496" />
      <path
         fill="#d2d2d2"
         stroke="none"
         d="m 1851,669 v -20 h -4 v 20 h 4 m 50,-20 v 20 h 4 v -20 h -4 m -38,20 v -20 h -8 v 20 h 8 m 5,-20 v 20 h 16 v -20 h -16 m 29,0 h -8 v 20 h 8 z"
         id="path1497" />
    </g>
    <g
       id="Layer0_267_MEMBER_4_FILL">
      <path
         fill="#ac3939"
         stroke="none"
         d="m 1908,689.15 h -64 l 11.3,25.95 h 41.35 z"
         id="path1498" />
      <path
         fill="#b83d3d"
         stroke="none"
         d="m 1855.3,715.1 0.9,2 h 39.6 l 0.85,-2 z"
         id="path1499" />
      <path
         fill="#a63737"
         stroke="none"
         d="m 1856.2,717.1 4.25,9.8 h 31.05 l 4.3,-9.8 z"
         id="path1500" />
      <path
         fill="#802b2b"
         stroke="none"
         d="m 1910,689.15 h -2 l -11.35,25.95 -0.85,2 -4.3,9.8 h -31.05 l -4.25,-9.8 -0.9,-2 -11.3,-25.95 h -2 q 0,0.4 0.2,0.8 l 16.45,37.75 q 0.2,0.55 0.7,0.9 0.5,0.3 1.1,0.3 h 31.05 q 0.6,0 1.1,-0.3 0.5,-0.35 0.75,-0.9 l 16.5,-37.75 q 0.15,-0.4 0.15,-0.8 z"
         id="path1501" />
    </g>
    <g
       id="Layer0_267_MEMBER_5_FILL">
      <path
         fill="#e2e2e2"
         stroke="none"
         d="m 1908,675.1 v 12.1 l 36.75,-9.7 -5.55,-9.7 z"
         id="path1502" />
      <path
         fill="#9f9f9f"
         stroke="none"
         d="m 1945.75,679.3 -1,-1.8 -36.75,9.7 v 2 q 0.25,0 0.5,-0.05 z"
         id="path1503" />
      <path
         fill="#ac3939"
         stroke="none"
         d="m 1944.75,677.5 7.65,-2.05 -44.4,-68.7 v 68.35 l 31.2,-7.3 z"
         id="path1504" />
      <path
         fill="#802b2b"
         stroke="none"
         d="m 1954.4,675.55 q 0.05,-0.65 -0.3,-1.15 l -44.4,-68.7 q -0.4,-0.6 -1,-0.8 -0.35,-0.15 -0.7,-0.15 v 2 l 44.4,68.7 -7.65,2.05 1,1.8 7.15,-1.9 q 0.65,-0.2 1.05,-0.7 0.4,-0.5 0.45,-1.15 z"
         id="path1505" />
    </g>
    <g
       id="Layer0_267_MEMBER_6_FILL">
      <path
         fill="#e2e2e2"
         stroke="none"
         d="m 1813.2,668.6 -5.55,9.7 36.75,9.7 v -12.1 z"
         id="path1506" />
      <path
         fill="#ac3939"
         stroke="none"
         d="m 1800,676.25 7.65,2.05 5.55,-9.7 31.2,7.3 v -68.35 z"
         id="path1507" />
      <path
         fill="#9f9f9f"
         stroke="none"
         d="m 1807.65,678.3 -1,1.8 37.25,9.85 q 0.25,0.05 0.5,0.05 v -2 z"
         id="path1508" />
      <path
         fill="#802b2b"
         stroke="none"
         d="m 1844.4,607.55 v -2 q -0.35,0 -0.7,0.15 -0.6,0.2 -1,0.8 l -44.4,68.7 q -0.35,0.5 -0.3,1.15 0.05,0.65 0.45,1.15 0.4,0.5 1.05,0.7 l 7.15,1.9 1,-1.8 -7.65,-2.05 z"
         id="path1509" />
    </g>
  </defs>
  <g
     id="g2040"
     transform="translate(-1797.9937,-420)">
    <use
       xlink:href="#Layer0_267_MEMBER_0_FILL"
       id="use2040" />
  </g>
  <g
     id="g2041"
     transform="translate(-1797.9937,-420)">
    <use
       xlink:href="#Layer0_267_MEMBER_1_FILL"
       id="use2041" />
  </g>
  <g
     id="g2042"
     transform="translate(-1797.9937,-420)">
    <use
       xlink:href="#Layer0_267_MEMBER_2_FILL"
       id="use2042" />
  </g>
  <g
     id="g2043"
     transform="translate(-1797.9937,-420)">
    <use
       xlink:href="#Layer0_267_MEMBER_3_FILL"
       id="use2043" />
  </g>
  <g
     id="g2044"
     transform="translate(-1797.9937,-420)">
    <use
       xlink:href="#Layer0_267_MEMBER_4_FILL"
       id="use2044" />
  </g>
  <g
     id="g2045"
     transform="translate(-1797.9937,-420)">
    <use
       xlink:href="#Layer0_267_MEMBER_5_FILL"
       id="use2045" />
  </g>
  <g
     id="g2046"
     transform="translate(-1797.9937,-420)">
    <use
       xlink:href="#Layer0_267_MEMBER_6_FILL"
       id="use2046" />
  </g>
</svg>
